<svg width="70" height="57" viewBox="0 0 70 57" fill="none" xmlns="http://www.w3.org/2000/svg">
<path fill-rule="evenodd" clip-rule="evenodd" d="M0 11.187L6.49903 45.9526H63.3656L70 11.3591L59.7099 18.7597L58.2205 2.75372L49.5551 12.5638L46.8472 15.6618L44.5455 18.2434L44.0039 18.7597L34.9323 0L25.9961 18.4155L25.4545 17.8991L23.1528 15.3175L20.4449 12.2196L11.9149 2.58161L10.4255 18.7597L0 11.187ZM21.6637 19.1035L19.0912 16.0055L14.0815 10.326L13.1337 20.6524L21.9345 26.8483L24.3716 22.0293L23.9655 21.6851L21.6637 19.1035ZM50.9094 16.1776L48.2014 19.1035L45.8997 21.8572L45.6289 22.2014L47.9306 26.8483L56.8668 20.4803L55.919 10.326L50.9094 16.1776Z" fill="#20F575"/>
<path d="M8.59664 57L7.24268 49.4272H62.7565L61.4025 57H8.59664Z" fill="white"/>
</svg>
